{
    "accessors": {
        "Armature_ArmatureAction_buffer_accessor_0": {
            "bufferView": "Armature_ArmatureAction_buffer_view_0",
            "byteOffset": 0,
            "byteStride": 12,
            "componentType": 5126,
            "count": 43,
            "max": [
                0,
                0,
                0
            ],
            "min": [
                0,
                0,
                0
            ],
            "type": "VEC3"
        },
        "Armature_ArmatureAction_buffer_accessor_1": {
            "bufferView": "Armature_ArmatureAction_buffer_view_1",
            "byteOffset": 0,
            "byteStride": 16,
            "componentType": 5126,
            "count": 43,
            "max": [
                1.0,
                0,
                0,
                0
            ],
            "min": [
                0,
                0,
                0,
                0
            ],
            "type": "VEC4"
        },
        "Armature_ArmatureAction_buffer_accessor_2": {
            "bufferView": "Armature_ArmatureAction_buffer_view_2",
            "byteOffset": 0,
            "byteStride": 12,
            "componentType": 5126,
            "count": 43,
            "max": [
                1.0,
                1.0,
                1.0
            ],
            "min": [
                0,
                0,
                0
            ],
            "type": "VEC3"
        },
        "Bone_ArmatureAction_buffer_accessor_0": {
            "bufferView": "Bone_ArmatureAction_buffer_view_0",
            "byteOffset": 0,
            "byteStride": 12,
            "componentType": 5126,
            "count": 43,
            "max": [
                0,
                0,
                0.009937286376953125
            ],
            "min": [
                0,
                -0.00993800163269043,
                0
            ],
            "type": "VEC3"
        },
        "Bone_ArmatureAction_buffer_accessor_1": {
            "bufferView": "Bone_ArmatureAction_buffer_view_1",
            "byteOffset": 0,
            "byteStride": 16,
            "componentType": 5126,
            "count": 43,
            "max": [
                0.7086775302886963,
                0.7055314779281616,
                0,
                0.0003042696334887296
            ],
            "min": [
                0,
                0,
                -0.0011709870304912329,
                0
            ],
            "type": "VEC4"
        },
        "Bone_ArmatureAction_buffer_accessor_2": {
            "bufferView": "Bone_ArmatureAction_buffer_view_2",
            "byteOffset": 0,
            "byteStride": 12,
            "componentType": 5126,
            "count": 43,
            "max": [
                1.0013749599456787,
                1.0013749599456787,
                1.0013749599456787
            ],
            "min": [
                0,
                0,
                0
            ],
            "type": "VEC3"
        },
        "IBM_Cube_skin_buffer_accessor_0": {
            "bufferView": "IBM_Cube_skin_buffer_view_0",
            "byteOffset": 0,
            "byteStride": 64,
            "componentType": 5126,
            "count": 1,
            "max": [
                1.0,
                0,
                0,
                0,
                0,
                1.0,
                0,
                0,
                0,
                0,
                1.0,
                0,
                0,
                0,
                0,
                1.0
            ],
            "min": [
                0,
                0,
                0,
                0,
                0,
                0,
                0,
                0,
                0,
                0,
                0,
                0,
                0,
                0,
                0,
                0
            ],
            "type": "MAT4"
        }
    },
    "asset": {
        "profile": {
            "api": "WebGL",
            "version": "1.0.3"
        },
        "version": "1.0"
    },
    "bufferViews": {
        "Armature_ArmatureAction_buffer_view_0": {
            "buffer": "Armature_ArmatureAction_buffer",
            "byteLength": 516,
            "byteOffset": 0
        },
        "Armature_ArmatureAction_buffer_view_1": {
            "buffer": "Armature_ArmatureAction_buffer",
            "byteLength": 688,
            "byteOffset": 516
        },
        "Armature_ArmatureAction_buffer_view_2": {
            "buffer": "Armature_ArmatureAction_buffer",
            "byteLength": 516,
            "byteOffset": 1204
        },
        "Bone_ArmatureAction_buffer_view_0": {
            "buffer": "Bone_ArmatureAction_buffer",
            "byteLength": 516,
            "byteOffset": 0
        },
        "Bone_ArmatureAction_buffer_view_1": {
            "buffer": "Bone_ArmatureAction_buffer",
            "byteLength": 688,
            "byteOffset": 516
        },
        "Bone_ArmatureAction_buffer_view_2": {
            "buffer": "Bone_ArmatureAction_buffer",
            "byteLength": 516,
            "byteOffset": 1204
        },
        "IBM_Cube_skin_buffer_view_0": {
            "buffer": "IBM_Cube_skin_buffer",
            "byteLength": 64,
            "byteOffset": 0
        }
    },
    "buffers": {
        "Armature_ArmatureAction_buffer": {
            "byteLength": 1720,
            "type": "arraybuffer",
            "uri": "data:text/plain;base64,"
        },
        "Bone_ArmatureAction_buffer": {
            "byteLength": 1720,
            "type": "arraybuffer",
            "uri": "data:text/plain;base64,"
        },
        "IBM_Cube_skin_buffer": {
            "byteLength": 64,
            "type": "arraybuffer",
            "uri": "data:text/plain;base64,"
        }
    },
    "extensions": {
        "BLENDER_actions": {
            "actions": {
                "Armature_root|ArmatureAction": {
                    "channels": [
                        {
                            "data": "Armature_ArmatureAction_buffer_accessor_0",
                            "id": "Armature",
                            "path": "translation"
                        },
                        {
                            "data": "Armature_ArmatureAction_buffer_accessor_1",
                            "id": "Armature",
                            "path": "rotation"
                        },
                        {
                            "data": "Armature_ArmatureAction_buffer_accessor_2",
                            "id": "Armature",
                            "path": "scale"
                        },
                        {
                            "data": "Bone_ArmatureAction_buffer_accessor_0",
                            "id": "Armature_root_Bone",
                            "path": "translation"
                        },
                        {
                            "data": "Bone_ArmatureAction_buffer_accessor_1",
                            "id": "Armature_root_Bone",
                            "path": "rotation"
                        },
                        {
                            "data": "Bone_ArmatureAction_buffer_accessor_2",
                            "id": "Armature_root_Bone",
                            "path": "scale"
                        }
                    ],
                    "frames": 43
                }
            }
        }
    },
    "extensionsUsed": [
        "BLENDER_actions",
        "BLENDER_physics"
    ],
    "extras": {
        "lights": {
            "Lamp": {
                "point": {
                    "color": [
                        1.0,
                        1.0,
                        1.0
                    ],
                    "constantAttenuation": 1,
                    "linearAttenuation": 0,
                    "quadraticAttenuation": 0.03333335240683057
                },
                "type": "point"
            }
        }
    },
    "materials": {
        "Material": {
            "technique": "MaterialTechnique",
            "values": {
                "diffuse_color": [
                    0.800000011920929,
                    0.800000011920929,
                    0.800000011920929
                ],
                "diffuse_intensity": 0.800000011920929,
                "specular_color": [
                    1.0,
                    1.0,
                    1.0
                ],
                "specular_hardness": 50,
                "specular_intensity": 0.5
            }
        }
    },
    "nodes": {
        "Armature": {
            "children": [
                "Cube"
            ],
            "matrix": [
                1.0,
                0.0,
                0.0,
                0.0,
                0.0,
                1.0,
                0.0,
                0.0,
                0.0,
                0.0,
                1.0,
                0.0,
                0.0,
                0.0,
                0.0,
                1.0
            ],
            "name": "Armature"
        },
        "Armature_Bone": {
            "children": [],
            "jointName": "Armature_Bone",
            "matrix": [
                1.0,
                0.0,
                0.0,
                0.0,
                0.0,
                0.0,
                1.0,
                0.0,
                0.0,
                -1.0,
                0.0,
                0.0,
                0.0,
                0.0,
                0.0,
                1.0
            ],
            "name": "Bone"
        },
        "Armature_root": {
            "children": [
                "Armature_Bone"
            ],
            "jointName": "Armature",
            "matrix": [
                1.0,
                0.0,
                0.0,
                0.0,
                0.0,
                1.0,
                0.0,
                0.0,
                0.0,
                0.0,
                1.0,
                0.0,
                0.0,
                0.0,
                0.0,
                1.0
            ],
            "name": "Armature"
        },
        "Camera": {
            "camera": "Camera",
            "children": [],
            "matrix": [
                0.6858805418014526,
                0.7276337742805481,
                -0.010816780850291252,
                0.0,
                -0.31737011671066284,
                0.31246861815452576,
                0.8953432440757751,
                0.0,
                0.6548618674278259,
                -0.6106656193733215,
                0.4452453553676605,
                0.0,
                7.481131553649902,
                -6.5076398849487305,
                5.34366512298584,
                1.0
            ],
            "name": "Camera"
        },
        "Cube": {
            "children": [],
            "matrix": [
                1.0,
                0.0,
                0.0,
                0.0,
                0.0,
                1.0,
                0.0,
                0.0,
                0.0,
                0.0,
                1.0,
                0.0,
                0.0,
                0.0,
                0.0,
                1.0
            ],
            "meshes": [
                "Mesh"
            ],
            "name": "Cube",
            "skeletons": [
                "Armature_root"
            ],
            "skin": "Mesh_skin"
        },
        "Lamp": {
            "children": [],
            "extras": {
                "light": "Lamp"
            },
            "matrix": [
                -0.29086464643478394,
                0.9551711678504944,
                -0.05518905818462372,
                0.0,
                -0.7711008191108704,
                -0.1998833566904068,
                0.6045247316360474,
                0.0,
                0.5663931965827942,
                0.21839119493961334,
                0.7946722507476807,
                0.0,
                4.076245307922363,
                1.0054539442062378,
                5.903861999511719,
                1.0
            ],
            "name": "Lamp"
        }
    },
    "programs": {
        "MaterialProgram": {
            "attributes": [
                "bl_Vertex",
                "bl_Normal"
            ],
            "fragmentShader": "MaterialFS",
            "vertexShader": "MaterialVS"
        }
    },
    "samplers": {
        "default": {}
    },
    "scene": "Scene",
    "scenes": {
        "Scene": {
            "extras": {
                "active_camera": "Camera",
                "background_color": [
                    0.05087608844041824,
                    0.05087608844041824,
                    0.05087608844041824
                ],
                "frames_per_second": 24,
                "hidden_nodes": []
            },
            "nodes": [
                "Armature",
                "Lamp",
                "Camera"
            ]
        }
    },
    "shaders": {
        "MaterialFS": {
            "type": 35632,
            "uri": "data:text/plain;base64,"
        },
        "MaterialVS": {
            "type": 35633,
            "uri": "data:text/plain;base64,"
        }
    },
    "skins": {
        "Mesh_skin": {
            "bindShapeMatrix": [
                1.0,
                0.0,
                0.0,
                0.0,
                0.0,
                1.0,
                0.0,
                0.0,
                0.0,
                0.0,
                1.0,
                0.0,
                0.0,
                0.0,
                0.0,
                1.0
            ],
            "inverseBindMatrices": "IBM_Cube_skin_buffer_accessor_0",
            "jointNames": [
                "Armature_Bone"
            ],
            "name": "Cube"
        }
    },
    "techniques": {
        "MaterialTechnique": {
            "attributes": {
                "bl_Normal": "bl_Normal",
                "bl_Vertex": "bl_Vertex"
            },
            "parameters": {
                "Lamp_color": {
                    "type": 35665,
                    "value": [
                        1.0,
                        1.0,
                        1.0
                    ]
                },
                "Lamp_distance": {
                    "type": 5126,
                    "value": 29.999982833862305
                },
                "Lamp_dynco": {
                    "node": "Lamp",
                    "semantic": "BL_DYNCO",
                    "type": 35665
                },
                "Lamp_energy": {
                    "type": 5126,
                    "value": 1.0
                },
                "ambient_color": {
                    "type": 35666,
                    "value": [
                        0.0,
                        0.0,
                        0.0
                    ]
                },
                "bl_Normal": {
                    "semantic": "NORMAL",
                    "type": 35665
                },
                "bl_Vertex": {
                    "semantic": "POSITION",
                    "type": 35665
                },
                "diffuse_color": {
                    "type": 35665,
                    "value": [
                        0.800000011920929,
                        0.800000011920929,
                        0.800000011920929
                    ]
                },
                "diffuse_intensity": {
                    "type": 5126,
                    "value": 0.800000011920929
                },
                "mist_color": {
                    "type": 35666,
                    "value": [
                        0.05087608844041824,
                        0.05087608844041824,
                        0.05087608844041824
                    ]
                },
                "mist_depth": {
                    "type": 5126,
                    "value": 25.0
                },
                "mist_falloff": {
                    "type": 5126,
                    "value": 0.0
                },
                "mist_intensity": {
                    "type": 5126,
                    "value": 0.0
                },
                "mist_start": {
                    "type": 5126,
                    "value": 5.0
                },
                "mist_use_mist": {
                    "type": 5126,
                    "value": false
                },
                "specular_color": {
                    "type": 35665,
                    "value": [
                        1.0,
                        1.0,
                        1.0
                    ]
                },
                "specular_hardness": {
                    "type": 5126,
                    "value": 50
                },
                "specular_intensity": {
                    "type": 5126,
                    "value": 0.5
                }
            },
            "program": "MaterialProgram",
            "uniforms": {
                "unf1": "diffuse_color",
                "unf10": "Lamp_dynco",
                "unf14": "Lamp_distance",
                "unf24": "diffuse_intensity",
                "unf26": "Lamp_energy",
                "unf27": "Lamp_color",
                "unf47": "specular_hardness",
                "unf50": "specular_intensity",
                "unf56": "specular_color",
                "unf67": "ambient_color",
                "unf76": "mist_use_mist",
                "unf77": "mist_start",
                "unf78": "mist_depth",
                "unf79": "mist_falloff",
                "unf80": "mist_intensity",
                "unf84": "mist_color"
            }
        }
    }
}
