{
  "accessors": {
    "IBM_Armature_Cube-skin": {
      "bufferView": "bufferView_1",
      "byteOffset": 0,
      "componentType": 5126,
      "count": 1,
      "type": "MAT4",
      "byteStride": 0,
      "min": [
        1,
        0,
        0,
        0,
        0,
        0,
        -1,
        0,
        0,
        1,
        0,
        0,
        0,
        0,
        0,
        1
      ],
      "max": [
        1,
        0,
        0,
        0,
        0,
        0,
        -1,
        0,
        0,
        1,
        0,
        0,
        0,
        0,
        0,
        1
      ]
    },
    "accessor_16": {
      "bufferView": "bufferView_2",
      "byteOffset": 0,
      "byteStride": 0,
      "componentType": 5123,
      "count": 36,
      "type": "SCALAR",
      "min": [
        0
      ],
      "max": [
        35
      ]
    },
    "accessor_18": {
      "bufferView": "bufferView_0",
      "byteOffset": 0,
      "byteStride": 0,
      "componentType": 5126,
      "count": 32,
      "max": [
        1,
        1,
        1
      ],
      "min": [
        -1,
        -1,
        -1
      ],
      "type": "VEC3"
    },
    "accessor_20": {
      "bufferView": "bufferView_0",
      "byteOffset": 384,
      "byteStride": 0,
      "componentType": 5126,
      "count": 32,
      "max": [
        1,
        1,
        1
      ],
      "min": [
        -1,
        -1,
        -1
      ],
      "type": "VEC3"
    },
    "accessor_33": {
      "bufferView": "bufferView_0",
      "byteOffset": 768,
      "byteStride": 0,
      "componentType": 5126,
      "count": 32,
      "max": [
        1,
        0,
        0,
        0
      ],
      "min": [
        1,
        0,
        0,
        0
      ],
      "type": "VEC4"
    },
    "accessor_36": {
      "bufferView": "bufferView_0",
      "byteOffset": 1280,
      "byteStride": 0,
      "componentType": 5121,
      "count": 32,
      "max": [
        0,
        0,
        0,
        0
      ],
      "min": [
        0,
        0,
        0,
        0
      ],
      "type": "VEC4"
    },
    "animAccessor_0": {
      "bufferView": "bufferView_1",
      "byteOffset": 64,
      "componentType": 5126,
      "count": 3,
      "type": "SCALAR",
      "byteStride": 0,
      "min": [
        0.04166660085320473
      ],
      "max": [
        1.8333299160003662
      ]
    },
    "animAccessor_1": {
      "bufferView": "bufferView_1",
      "byteOffset": 76,
      "componentType": 5126,
      "count": 3,
      "type": "VEC3",
      "byteStride": 0,
      "min": [
        1,
        1,
        1
      ],
      "max": [
        1.302085041999817,
        1.3020849227905273,
        1.3020823001861572
      ]
    },
    "animAccessor_2": {
      "bufferView": "bufferView_1",
      "byteOffset": 112,
      "componentType": 5126,
      "count": 3,
      "type": "VEC3",
      "byteStride": 0,
      "min": [
        0,
        -2.183339834213257,
        0
      ],
      "max": [
        0,
        0,
        2.183300018310547
      ]
    },
    "animAccessor_3": {
      "bufferView": "bufferView_1",
      "byteOffset": 148,
      "componentType": 5126,
      "count": 3,
      "type": "VEC4",
      "byteStride": 0,
      "min": [
        0.24245627224445343,
        -0.25706276297569275,
        0,
        0.7071067690849304
      ],
      "max": [
        0.7071067690849304,
        0,
        0.06679531931877136,
        0.9330981373786926
      ]
    }
  },
  "animations": {
    "animation_0": {
      "channels": [
        {
          "sampler": "animation_0_scale_sampler",
          "target": {
            "id": "Bone",
            "path": "scale"
          }
        },
        {
          "sampler": "animation_0_translation_sampler",
          "target": {
            "id": "Bone",
            "path": "translation"
          }
        },
        {
          "sampler": "animation_0_rotation_sampler",
          "target": {
            "id": "Bone",
            "path": "rotation"
          }
        }
      ],
      "parameters": {
        "TIME": "animAccessor_0",
        "rotation": "animAccessor_3",
        "scale": "animAccessor_1",
        "translation": "animAccessor_2"
      },
      "samplers": {
        "animation_0_rotation_sampler": {
          "input": "TIME",
          "interpolation": "LINEAR",
          "output": "rotation"
        },
        "animation_0_scale_sampler": {
          "input": "TIME",
          "interpolation": "LINEAR",
          "output": "scale"
        },
        "animation_0_translation_sampler": {
          "input": "TIME",
          "interpolation": "LINEAR",
          "output": "translation"
        }
      }
    }
  },
  "asset": {
    "generator": "collada2gltf@",
    "premultipliedAlpha": true,
    "profile": {
      "api": "WebGL",
      "version": "1.0.2"
    },
    "version": "1.0"
  },
  "bufferViews": {
    "bufferView_0": {
      "buffer": "buffer_0",
      "byteLength": 1408,
      "byteOffset": 0,
      "target": 34962
    },
    "bufferView_1": {
      "buffer": "buffer_0",
      "byteLength": 196,
      "byteOffset": 1408
    },
    "bufferView_2": {
      "buffer": "buffer_0",
      "byteLength": 72,
      "byteOffset": 1604,
      "target": 34963
    }
  },
  "buffers": {
    "buffer_0": {
      "type": "arraybuffer",
      "byteLength": 1676,
      "uri": "data:application/octet-stream;base64,"
    }
  },
  "cameras": {
    "Camera-camera": {
      "name": "Camera",
      "perspective": {
        "aspectRatio": 1.7777799367904663,
        "yfov": 0.48237427870788735,
        "zfar": 100,
        "znear": 0.10000000149011612
      },
      "type": "perspective"
    }
  },
  "materials": {
    "Material-effect": {
      "name": "Material",
      "technique": "technique0",
      "values": {
        "ambient": [
          0,
          0,
          0,
          1
        ],
        "diffuse": [
          0.6399999856948853,
          0.6399999856948853,
          0.6399999856948853,
          1
        ],
        "emission": [
          0,
          0,
          0,
          1
        ],
        "shininess": 50,
        "specular": [
          0.5,
          0.5,
          0.5,
          1
        ]
      }
    }
  },
  "meshes": {
    "Cube-mesh": {
      "name": "Cube",
      "primitives": [
        {
          "attributes": {
            "JOINT": "accessor_36",
            "NORMAL": "accessor_20",
            "POSITION": "accessor_18",
            "WEIGHT": "accessor_33"
          },
          "indices": "accessor_16",
          "material": "Material-effect",
          "mode": 4
        }
      ]
    }
  },
  "nodes": {
    "Armature": {
      "children": [
        "Bone"
      ],
      "matrix": [
        1,
        0,
        0,
        0,
        0,
        1,
        0,
        0,
        0,
        0,
        1,
        0,
        0,
        0,
        0,
        1
      ],
      "name": "Armature"
    },
    "Bone": {
      "children": [],
      "jointName": "Bone",
      "name": "Bone",
      "rotation": [
        0.7071067690849304,
        0,
        0,
        0.7071067690849304
      ],
      "scale": [
        1,
        1,
        1
      ],
      "translation": [
        0,
        0,
        0
      ]
    },
    "Camera": {
      "camera": "Camera-camera",
      "children": [],
      "matrix": [
        0.6858811378479004,
        0.7276331782341003,
        -0.010816781781613827,
        0,
        -0.31736981868743896,
        0.31246882677078247,
        0.8953433036804199,
        0,
        0.6548614501953125,
        -0.6106661558151245,
        0.44524529576301575,
        0,
        7.4811296463012695,
        -6.5076398849487305,
        5.3436598777771,
        1
      ],
      "name": "Camera"
    },
    "Cube": {
      "children": [],
      "matrix": [
        1,
        0,
        0,
        0,
        0,
        1,
        0,
        0,
        0,
        0,
        1,
        0,
        0,
        0,
        0,
        1
      ],
      "meshes": [
        "Cube-mesh"
      ],
      "name": "Cube",
      "skeletons": [
        "Bone"
      ],
      "skin": "Armature_Cube-skin"
    },
    "Lamp": {
      "children": [],
      "matrix": [
        -0.2908594310283661,
        0.9551727175712585,
        -0.055189099162817,
        0,
        -0.7711024284362793,
        -0.19987930357456207,
        0.6045240759849548,
        0,
        0.5663937330245972,
        0.21838797628879547,
        0.7946727871894836,
        0,
        4.076250076293945,
        1.0054500102996826,
        5.903859615325928,
        1
      ],
      "name": "Lamp"
    },
    "node_5": {
      "children": [
        "Cube",
        "Armature",
        "Lamp",
        "Camera"
      ],
      "matrix": [
        1,
        0,
        0,
        0,
        0,
        0,
        -1,
        0,
        0,
        1,
        0,
        0,
        0,
        0,
        0,
        1
      ],
      "name": "Y_UP_Transform"
    }
  },
  "programs": {
    "program_0": {
      "attributes": [
        "a_joint",
        "a_normal",
        "a_position",
        "a_weight"
      ],
      "fragmentShader": "input0FS",
      "vertexShader": "input0VS"
    }
  },
  "scene": "defaultScene",
  "scenes": {
    "defaultScene": {
      "nodes": [
        "node_5"
      ]
    }
  },
  "shaders": {
    "input0FS": {
      "type": 35632,
      "uri": "data:text/plain;base64,"
    },
    "input0VS": {
      "type": 35633,
      "uri": "data:text/plain;base64,"
    }
  },
  "skins": {
    "Armature_Cube-skin": {
      "bindShapeMatrix": [
        1,
        0,
        0,
        0,
        0,
        1,
        0,
        0,
        0,
        0,
        1,
        0,
        0,
        0,
        0,
        1
      ],
      "inverseBindMatrices": "IBM_Armature_Cube-skin",
      "jointNames": [
        "Bone"
      ],
      "name": "Armature"
    }
  },
  "techniques": {
    "technique0": {
      "attributes": {
        "a_joint": "joint",
        "a_normal": "normal",
        "a_position": "position",
        "a_weight": "weight"
      },
      "parameters": {
        "ambient": {
          "type": 35666
        },
        "diffuse": {
          "type": 35666
        },
        "emission": {
          "type": 35666
        },
        "joint": {
          "semantic": "JOINT",
          "type": 35666
        },
        "jointMat": {
          "count": 1,
          "semantic": "JOINTMATRIX",
          "type": 35676
        },
        "light0Color": {
          "type": 35665,
          "value": [
            1,
            1,
            1
          ]
        },
        "light0ConstantAttenuation": {
          "type": 5126,
          "value": 1
        },
        "light0LinearAttenuation": {
          "type": 5126,
          "value": 0
        },
        "light0QuadraticAttenuation": {
          "type": 5126,
          "value": 0.001111089950427413
        },
        "light0Transform": {
          "node": "Lamp",
          "semantic": "MODELVIEW",
          "type": 35676
        },
        "modelViewMatrix": {
          "semantic": "MODELVIEW",
          "type": 35676
        },
        "normal": {
          "semantic": "NORMAL",
          "type": 35665
        },
        "normalMatrix": {
          "semantic": "MODELVIEWINVERSETRANSPOSE",
          "type": 35675
        },
        "position": {
          "semantic": "POSITION",
          "type": 35665
        },
        "projectionMatrix": {
          "semantic": "PROJECTION",
          "type": 35676
        },
        "shininess": {
          "type": 5126
        },
        "specular": {
          "type": 35666
        },
        "weight": {
          "semantic": "WEIGHT",
          "type": 35666
        }
      },
      "program": "program_0",
      "states": {
        "enable": [
          2929,
          2884
        ],
        "disable": []
      },
      "uniforms": {
        "u_ambient": "ambient",
        "u_diffuse": "diffuse",
        "u_emission": "emission",
        "u_jointMat": "jointMat",
        "u_light0Color": "light0Color",
        "u_light0ConstantAttenuation": "light0ConstantAttenuation",
        "u_light0LinearAttenuation": "light0LinearAttenuation",
        "u_light0QuadraticAttenuation": "light0QuadraticAttenuation",
        "u_light0Transform": "light0Transform",
        "u_modelViewMatrix": "modelViewMatrix",
        "u_normalMatrix": "normalMatrix",
        "u_projectionMatrix": "projectionMatrix",
        "u_shininess": "shininess",
        "u_specular": "specular"
      }
    }
  },
  "extensionsUsed": [],
  "images": {},
  "samplers": {},
  "textures": {}
}
