{
  "accessors": {
    "accessor_21": {
      "bufferView": "bufferView_2",
      "byteOffset": 0,
      "byteStride": 0,
      "componentType": 5123,
      "count": 2400,
      "type": "SCALAR",
      "min": [
        0
      ],
      "max": [
        2399
      ]
    },
    "accessor_23": {
      "bufferView": "bufferView_0",
      "byteOffset": 0,
      "byteStride": 0,
      "componentType": 5126,
      "count": 481,
      "max": [
        1.0710501670837402,
        3.3514530658721924,
        1.313219666481018
      ],
      "min": [
        -1.0710501670837402,
        0.7999511957168579,
        -1.0067415237426758
      ],
      "type": "VEC3"
    },
    "accessor_25": {
      "bufferView": "bufferView_0",
      "byteOffset": 5772,
      "byteStride": 0,
      "componentType": 5126,
      "count": 481,
      "max": [
        1.2890070676803589,
        1.2814092636108398,
        1.2903786897659302
      ],
      "min": [
        -1.2890070676803589,
        -1.289947748184204,
        -1.2903786897659302
      ],
      "type": "VEC3"
    },
    "accessor_27": {
      "bufferView": "bufferView_0",
      "byteOffset": 11544,
      "byteStride": 0,
      "componentType": 5126,
      "count": 481,
      "max": [
        0.9999009966850281,
        0.9999009966850281
      ],
      "min": [
        0.00009902060264721513,
        0.298317015171051
      ],
      "type": "VEC2"
    },
    "accessor_48": {
      "bufferView": "bufferView_2",
      "byteOffset": 4800,
      "byteStride": 0,
      "componentType": 5123,
      "count": 396,
      "type": "SCALAR",
      "min": [
        0
      ],
      "max": [
        395
      ]
    },
    "accessor_50": {
      "bufferView": "bufferView_0",
      "byteOffset": 15392,
      "byteStride": 0,
      "componentType": 5126,
      "count": 162,
      "max": [
        0.9003390073776245,
        0.1235790029168129,
        0.17911799252033234
      ],
      "min": [
        -0.481999009847641,
        -2.962019920349121,
        -0.14063699543476105
      ],
      "type": "VEC3"
    },
    "accessor_52": {
      "bufferView": "bufferView_0",
      "byteOffset": 17336,
      "byteStride": 0,
      "componentType": 5126,
      "count": 162,
      "max": [
        0.7978670001029968,
        0.7071070075035095,
        0.9997770190238953
      ],
      "min": [
        -0.742447018623352,
        -0.7008450031280518,
        -0.9997770190238953
      ],
      "type": "VEC3"
    },
    "accessor_54": {
      "bufferView": "bufferView_0",
      "byteOffset": 19280,
      "byteStride": 0,
      "componentType": 5126,
      "count": 162,
      "max": [
        0.7110030055046082,
        0.32428401708602905
      ],
      "min": [
        0.41790398955345154,
        0.031185030937194824
      ],
      "type": "VEC2"
    },
    "accessor_80": {
      "bufferView": "bufferView_2",
      "byteOffset": 5592,
      "byteStride": 0,
      "componentType": 5123,
      "count": 396,
      "type": "SCALAR",
      "min": [
        0
      ],
      "max": [
        395
      ]
    },
    "accessor_82": {
      "bufferView": "bufferView_0",
      "byteOffset": 20576,
      "byteStride": 0,
      "componentType": 5126,
      "count": 162,
      "max": [
        0.4959479868412018,
        0.10799100250005722,
        0.17911799252033234
      ],
      "min": [
        -0.886389970779419,
        -2.977609872817993,
        -0.14063699543476105
      ],
      "type": "VEC3"
    },
    "accessor_84": {
      "bufferView": "bufferView_0",
      "byteOffset": 22520,
      "byteStride": 0,
      "componentType": 5126,
      "count": 162,
      "max": [
        0.742447018623352,
        0.7071070075035095,
        0.9997889995574951
      ],
      "min": [
        -0.7978670001029968,
        -0.7008450031280518,
        -0.9997770190238953
      ],
      "type": "VEC3"
    },
    "accessor_86": {
      "bufferView": "bufferView_0",
      "byteOffset": 24464,
      "byteStride": 0,
      "componentType": 5126,
      "count": 162,
      "max": [
        0.34658101201057434,
        0.3524399995803833
      ],
      "min": [
        0.024512900039553642,
        0.030372023582458496
      ],
      "type": "VEC2"
    },
    "animAccessor_0": {
      "bufferView": "bufferView_1",
      "byteOffset": 0,
      "componentType": 5126,
      "count": 6,
      "type": "SCALAR",
      "byteStride": 0,
      "min": [
        0.04166660085320473
      ],
      "max": [
        7.75
      ]
    },
    "animAccessor_1": {
      "bufferView": "bufferView_1",
      "byteOffset": 24,
      "componentType": 5126,
      "count": 6,
      "type": "VEC3",
      "byteStride": 0,
      "min": [
        -5,
        -1.233489990234375,
        0
      ],
      "max": [
        -2.419019937515259,
        0,
        4.659689903259277
      ]
    },
    "animAccessor_2": {
      "bufferView": "bufferView_1",
      "byteOffset": 96,
      "componentType": 5126,
      "count": 6,
      "type": "VEC4",
      "byteStride": 0,
      "min": [
        0,
        -0.6512032747268677,
        0,
        -0.5266640186309814
      ],
      "max": [
        0.29069748520851135,
        0,
        0.7844762206077576,
        1
      ]
    },
    "animAccessor_3": {
      "bufferView": "bufferView_1",
      "byteOffset": 192,
      "componentType": 5126,
      "count": 6,
      "type": "VEC3",
      "byteStride": 0,
      "min": [
        1,
        1,
        1
      ],
      "max": [
        1,
        1,
        1
      ]
    },
    "animAccessor_4": {
      "bufferView": "bufferView_1",
      "byteOffset": 264,
      "componentType": 5126,
      "count": 6,
      "type": "VEC4",
      "byteStride": 0,
      "min": [
        0,
        0,
        -0.7298470735549927,
        -0.49665313959121704
      ],
      "max": [
        0.38869714736938477,
        0.5698131322860718,
        0,
        1
      ]
    },
    "animAccessor_5": {
      "bufferView": "bufferView_1",
      "byteOffset": 360,
      "componentType": 5126,
      "count": 6,
      "type": "VEC3",
      "byteStride": 0,
      "min": [
        2.3105099201202393,
        -1.50764000415802,
        0
      ],
      "max": [
        5,
        0.2548080086708069,
        4.626349925994873
      ]
    }
  },
  "animations": {
    "animation_0": {
      "channels": [
        {
          "sampler": "animation_0_translation_sampler",
          "target": {
            "id": "RHand",
            "path": "translation"
          }
        }
      ],
      "parameters": {
        "TIME": "animAccessor_0",
        "translation": "animAccessor_1"
      },
      "samplers": {
        "animation_0_translation_sampler": {
          "input": "TIME",
          "interpolation": "LINEAR",
          "output": "translation"
        }
      }
    },
    "animation_1": {
      "channels": [],
      "parameters": {
        "TIME": "animAccessor_0"
      },
      "samplers": {}
    },
    "animation_10": {
      "channels": [],
      "parameters": {
        "TIME": "animAccessor_0"
      },
      "samplers": {}
    },
    "animation_11": {
      "channels": [],
      "parameters": {
        "TIME": "animAccessor_0"
      },
      "samplers": {}
    },
    "animation_12": {
      "channels": [
        {
          "sampler": "animation_12_rotation_sampler",
          "target": {
            "id": "LHand",
            "path": "rotation"
          }
        }
      ],
      "parameters": {
        "TIME": "animAccessor_0",
        "rotation": "animAccessor_2"
      },
      "samplers": {
        "animation_12_rotation_sampler": {
          "input": "TIME",
          "interpolation": "LINEAR",
          "output": "rotation"
        }
      }
    },
    "animation_13": {
      "channels": [],
      "parameters": {
        "TIME": "animAccessor_0"
      },
      "samplers": {}
    },
    "animation_14": {
      "channels": [],
      "parameters": {
        "TIME": "animAccessor_0"
      },
      "samplers": {}
    },
    "animation_15": {
      "channels": [
        {
          "sampler": "animation_15_scale_sampler",
          "target": {
            "id": "LHand",
            "path": "scale"
          }
        }
      ],
      "parameters": {
        "TIME": "animAccessor_0",
        "scale": "animAccessor_3"
      },
      "samplers": {
        "animation_15_scale_sampler": {
          "input": "TIME",
          "interpolation": "LINEAR",
          "output": "scale"
        }
      }
    },
    "animation_16": {
      "channels": [],
      "parameters": {
        "TIME": "animAccessor_0"
      },
      "samplers": {}
    },
    "animation_17": {
      "channels": [],
      "parameters": {
        "TIME": "animAccessor_0"
      },
      "samplers": {}
    },
    "animation_2": {
      "channels": [],
      "parameters": {
        "TIME": "animAccessor_0"
      },
      "samplers": {}
    },
    "animation_3": {
      "channels": [
        {
          "sampler": "animation_3_rotation_sampler",
          "target": {
            "id": "RHand",
            "path": "rotation"
          }
        }
      ],
      "parameters": {
        "TIME": "animAccessor_0",
        "rotation": "animAccessor_4"
      },
      "samplers": {
        "animation_3_rotation_sampler": {
          "input": "TIME",
          "interpolation": "LINEAR",
          "output": "rotation"
        }
      }
    },
    "animation_4": {
      "channels": [],
      "parameters": {
        "TIME": "animAccessor_0"
      },
      "samplers": {}
    },
    "animation_5": {
      "channels": [],
      "parameters": {
        "TIME": "animAccessor_0"
      },
      "samplers": {}
    },
    "animation_6": {
      "channels": [
        {
          "sampler": "animation_6_scale_sampler",
          "target": {
            "id": "RHand",
            "path": "scale"
          }
        }
      ],
      "parameters": {
        "TIME": "animAccessor_0",
        "scale": "animAccessor_3"
      },
      "samplers": {
        "animation_6_scale_sampler": {
          "input": "TIME",
          "interpolation": "LINEAR",
          "output": "scale"
        }
      }
    },
    "animation_7": {
      "channels": [],
      "parameters": {
        "TIME": "animAccessor_0"
      },
      "samplers": {}
    },
    "animation_8": {
      "channels": [],
      "parameters": {
        "TIME": "animAccessor_0"
      },
      "samplers": {}
    },
    "animation_9": {
      "channels": [
        {
          "sampler": "animation_9_translation_sampler",
          "target": {
            "id": "LHand",
            "path": "translation"
          }
        }
      ],
      "parameters": {
        "TIME": "animAccessor_0",
        "translation": "animAccessor_5"
      },
      "samplers": {
        "animation_9_translation_sampler": {
          "input": "TIME",
          "interpolation": "LINEAR",
          "output": "translation"
        }
      }
    }
  },
  "asset": {
    "generator": "collada2gltf@",
    "premultipliedAlpha": true,
    "profile": {
      "api": "WebGL",
      "version": "1.0.2"
    },
    "version": "1.0"
  },
  "bufferViews": {
    "bufferView_0": {
      "buffer": "buffer_0",
      "byteLength": 25760,
      "byteOffset": 0,
      "target": 34962
    },
    "bufferView_1": {
      "buffer": "buffer_0",
      "byteLength": 432,
      "byteOffset": 25760
    },
    "bufferView_2": {
      "buffer": "buffer_0",
      "byteLength": 6384,
      "byteOffset": 26192,
      "target": 34963
    }
  },
  "buffers": {
    "buffer_0": {
      "type": "arraybuffer",
      "byteLength": 32576,
      "uri": "buffer_0.bin"
    }
  },
  "cameras": {
    "Camera-camera": {
      "name": "Camera",
      "perspective": {
        "aspectRatio": 1.7777799367904663,
        "yfov": 0.48237427870788735,
        "zfar": 100,
        "znear": 0.10000000149011612
      },
      "type": "perspective"
    }
  },
  "images": {
    "jackie_tex_png": {
      "name": "jackie_tex_png",
      "uri": "jackie_tex_png.png"
    }
  },
  "materials": {
    "jackie-effect": {
      "name": "jackie",
      "technique": "technique0",
      "values": {
        "ambient": [
          0,
          0,
          0,
          1
        ],
        "diffuse": "texture_jackie_tex_png",
        "emission": [
          0,
          0,
          0,
          1
        ],
        "shininess": 50,
        "specular": [
          0.5,
          0.5,
          0.5,
          1
        ]
      }
    },
    "jackie-effect-variant-2": {
      "name": "jackie",
      "technique": "technique1",
      "values": {
        "ambient": [
          0,
          0,
          0,
          1
        ],
        "diffuse": "texture_jackie_tex_png",
        "emission": [
          0,
          0,
          0,
          1
        ],
        "shininess": 50,
        "specular": [
          0.5,
          0.5,
          0.5,
          1
        ]
      }
    }
  },
  "meshes": {
    "Cube-mesh": {
      "name": "Cube",
      "primitives": [
        {
          "attributes": {
            "NORMAL": "accessor_25",
            "POSITION": "accessor_23",
            "TEXCOORD_0": "accessor_27"
          },
          "indices": "accessor_21",
          "material": "jackie-effect",
          "mode": 4
        }
      ]
    },
    "Cube_001-mesh": {
      "name": "Cube.001",
      "primitives": [
        {
          "attributes": {
            "NORMAL": "accessor_84",
            "POSITION": "accessor_82",
            "TEXCOORD_0": "accessor_86"
          },
          "indices": "accessor_80",
          "material": "jackie-effect-variant-2",
          "mode": 4
        }
      ]
    },
    "Cube_003-mesh": {
      "name": "Cube.003",
      "primitives": [
        {
          "attributes": {
            "NORMAL": "accessor_52",
            "POSITION": "accessor_50",
            "TEXCOORD_0": "accessor_54"
          },
          "indices": "accessor_48",
          "material": "jackie-effect",
          "mode": 4
        }
      ]
    }
  },
  "nodes": {
    "Camera": {
      "camera": "Camera-camera",
      "children": [],
      "matrix": [
        0.6858811378479004,
        0.7276331782341003,
        -0.010816781781613827,
        0,
        -0.31736981868743896,
        0.31246882677078247,
        0.8953433036804199,
        0,
        0.6548614501953125,
        -0.6106661558151245,
        0.44524529576301575,
        0,
        7.4811296463012695,
        -6.5076398849487305,
        5.3436598777771,
        1
      ],
      "name": "Camera"
    },
    "LHand": {
      "children": [],
      "meshes": [
        "Cube_001-mesh"
      ],
      "name": "LHand",
      "rotation": [
        0.21114127337932587,
        -0.38139912486076355,
        0.7603217363357544,
        -0.4815235733985901
      ],
      "scale": [
        1,
        1,
        1
      ],
      "translation": [
        2.539340019226074,
        -1.3793699741363525,
        0.7266790270805359
      ]
    },
    "Lamp": {
      "children": [],
      "matrix": [
        -0.2908594310283661,
        0.9551727175712585,
        -0.055189099162817,
        0,
        -0.7711024284362793,
        -0.19987930357456207,
        0.6045240759849548,
        0,
        0.5663937330245972,
        0.21838797628879547,
        0.7946727871894836,
        0,
        4.076250076293945,
        -7.964219570159912,
        2.131340026855,
        1
      ],
      "name": "Lamp"
    },
    "RHand": {
      "children": [],
      "meshes": [
        "Cube_003-mesh"
      ],
      "name": "RHand",
      "rotation": [
        0.005819670855998993,
        -0.5694121718406677,
        0.6538543105125427,
        0.4982072710990906
      ],
      "scale": [
        1,
        1,
        1
      ],
      "translation": [
        -2.6386098861694336,
        -1.1285399198532104,
        0.8147099614143372
      ]
    },
    "node_5": {
      "children": [
        "Camera",
        "Lamp",
        "RHand",
        "LHand"
      ],
      "matrix": [
        1,
        0,
        0,
        0,
        0,
        0,
        -1,
        0,
        0,
        1,
        0,
        0,
        0,
        0,
        0,
        1
      ],
      "name": "Y_UP_Transform",
      "meshes": []
    },
    "rootNode_0": {
      "children": [
        "node_5"
      ],
      "meshes": [
        "Cube-mesh"
      ],
      "matrix": [
        1,
        0,
        0,
        0,
        0,
        1,
        0,
        0,
        0,
        0,
        1,
        0,
        0,
        0,
        0,
        1
      ]
    }
  },
  "programs": {
    "program_0": {
      "attributes": [
        "a_normal",
        "a_position",
        "a_texcoord0"
      ],
      "fragmentShader": "wtf180FS",
      "vertexShader": "wtf180VS"
    },
    "program_1": {
      "attributes": [
        "a_normal",
        "a_position",
        "a_texcoord0"
      ],
      "fragmentShader": "wtf181FS",
      "vertexShader": "wtf181VS"
    }
  },
  "samplers": {
    "sampler_0": {
      "magFilter": 9729,
      "minFilter": 9729,
      "wrapS": 10497,
      "wrapT": 10497
    }
  },
  "scene": "defaultScene",
  "scenes": {
    "defaultScene": {
      "nodes": [
        "rootNode_0"
      ]
    }
  },
  "shaders": {
    "wtf180FS": {
      "type": 35632,
      "uri": "wtf180FS.glsl"
    },
    "wtf180VS": {
      "type": 35633,
      "uri": "wtf180VS.glsl"
    },
    "wtf181FS": {
      "type": 35632,
      "uri": "wtf181FS.glsl"
    },
    "wtf181VS": {
      "type": 35633,
      "uri": "wtf181VS.glsl"
    }
  },
  "skins": {},
  "techniques": {
    "technique0": {
      "attributes": {
        "a_normal": "normal",
        "a_position": "position",
        "a_texcoord0": "texcoord0"
      },
      "parameters": {
        "ambient": {
          "type": 35666
        },
        "diffuse": {
          "type": 35678
        },
        "emission": {
          "type": 35666
        },
        "light0Color": {
          "type": 35665,
          "value": [
            1,
            1,
            1
          ]
        },
        "light0ConstantAttenuation": {
          "type": 5126,
          "value": 1
        },
        "light0LinearAttenuation": {
          "type": 5126,
          "value": 0
        },
        "light0QuadraticAttenuation": {
          "type": 5126,
          "value": 0.001111089950427413
        },
        "light0Transform": {
          "node": "Lamp",
          "semantic": "MODELVIEW",
          "type": 35676
        },
        "modelViewMatrix": {
          "semantic": "MODELVIEW",
          "type": 35676
        },
        "normal": {
          "semantic": "NORMAL",
          "type": 35665
        },
        "normalMatrix": {
          "semantic": "MODELVIEWINVERSETRANSPOSE",
          "type": 35675
        },
        "position": {
          "semantic": "POSITION",
          "type": 35665
        },
        "projectionMatrix": {
          "semantic": "PROJECTION",
          "type": 35676
        },
        "shininess": {
          "type": 5126
        },
        "specular": {
          "type": 35666
        },
        "texcoord0": {
          "semantic": "TEXCOORD_0",
          "type": 35664
        }
      },
      "program": "program_0",
      "states": {
        "enable": [
          2929,
          3042
        ],
        "functions": {
          "blendEquationSeparate": [
            32774,
            32774
          ],
          "blendFuncSeparate": [
            1,
            771,
            1,
            771
          ],
          "depthMask": [
            false
          ]
        },
        "disable": []
      },
      "uniforms": {
        "u_ambient": "ambient",
        "u_diffuse": "diffuse",
        "u_emission": "emission",
        "u_light0Color": "light0Color",
        "u_light0ConstantAttenuation": "light0ConstantAttenuation",
        "u_light0LinearAttenuation": "light0LinearAttenuation",
        "u_light0QuadraticAttenuation": "light0QuadraticAttenuation",
        "u_light0Transform": "light0Transform",
        "u_modelViewMatrix": "modelViewMatrix",
        "u_normalMatrix": "normalMatrix",
        "u_projectionMatrix": "projectionMatrix",
        "u_shininess": "shininess",
        "u_specular": "specular"
      }
    },
    "technique1": {
      "attributes": {
        "a_normal": "normal",
        "a_position": "position",
        "a_texcoord0": "texcoord0"
      },
      "parameters": {
        "ambient": {
          "type": 35666
        },
        "diffuse": {
          "type": 35678
        },
        "emission": {
          "type": 35666
        },
        "light0Color": {
          "type": 35665,
          "value": [
            1,
            1,
            1
          ]
        },
        "light0ConstantAttenuation": {
          "type": 5126,
          "value": 1
        },
        "light0LinearAttenuation": {
          "type": 5126,
          "value": 0
        },
        "light0QuadraticAttenuation": {
          "type": 5126,
          "value": 0.001111089950427413
        },
        "light0Transform": {
          "node": "Lamp",
          "semantic": "MODELVIEW",
          "type": 35676
        },
        "modelViewMatrix": {
          "semantic": "MODELVIEW",
          "type": 35676
        },
        "normal": {
          "semantic": "NORMAL",
          "type": 35665
        },
        "normalMatrix": {
          "semantic": "MODELVIEWINVERSETRANSPOSE",
          "type": 35675
        },
        "position": {
          "semantic": "POSITION",
          "type": 35665
        },
        "projectionMatrix": {
          "semantic": "PROJECTION",
          "type": 35676
        },
        "shininess": {
          "type": 5126
        },
        "specular": {
          "type": 35666
        },
        "texcoord0": {
          "semantic": "TEXCOORD_0",
          "type": 35664
        }
      },
      "program": "program_1",
      "states": {
        "enable": [
          2929,
          3042
        ],
        "functions": {
          "blendEquationSeparate": [
            32774,
            32774
          ],
          "blendFuncSeparate": [
            1,
            771,
            1,
            771
          ],
          "depthMask": [
            false
          ]
        },
        "disable": []
      },
      "uniforms": {
        "u_ambient": "ambient",
        "u_diffuse": "diffuse",
        "u_emission": "emission",
        "u_light0Color": "light0Color",
        "u_light0ConstantAttenuation": "light0ConstantAttenuation",
        "u_light0LinearAttenuation": "light0LinearAttenuation",
        "u_light0QuadraticAttenuation": "light0QuadraticAttenuation",
        "u_light0Transform": "light0Transform",
        "u_modelViewMatrix": "modelViewMatrix",
        "u_normalMatrix": "normalMatrix",
        "u_projectionMatrix": "projectionMatrix",
        "u_shininess": "shininess",
        "u_specular": "specular"
      }
    }
  },
  "textures": {
    "texture_jackie_tex_png": {
      "format": 6408,
      "internalFormat": 6408,
      "sampler": "sampler_0",
      "source": "jackie_tex_png",
      "target": 3553,
      "type": 5121
    }
  },
  "extensionsUsed": []
}
